<svg width="59" fill="#ffffff" height="48" xmlns="http://www.w3.org/2000/svg" class="bi">
<path  d="M7.08123 41.461C5.09848 40.769 3.66147 39.4997 2.77018 37.6529C1.87889 35.8061 1.77919 33.8914 2.4711 31.9086C3.16301 29.9259 4.43235 28.4889 6.27913 27.5976C8.12592 26.7063 10.0407 26.6066 12.0234 27.2985C12.9046 27.606 13.6554 28.0092 14.2756 28.5081C14.8959 29.007 15.3967 29.5701 15.7779 30.1974L23.1912 8.95375L34.2379 12.8087L32.0139 19.1818L23.7997 16.3153L16.6335 36.8508C15.9416 38.8336 14.6723 40.2706 12.8255 41.1619C10.9787 42.0532 9.06397 42.1529 7.08123 41.461Z" fill="currentColor"/>
<path  d="M42.9741 39.0428C40.9526 39.6119 39.0476 39.3949 37.2589 38.3921C35.4703 37.3892 34.2914 35.8771 33.7224 33.8556C33.1534 31.8342 33.3703 29.9291 34.3732 28.1405C35.376 26.3518 36.8882 25.173 38.9096 24.604C39.8081 24.3511 40.6544 24.2514 41.4486 24.3048C42.2428 24.3583 42.9758 24.5329 43.6477 24.8285L37.5511 3.17026L48.8134 1.17436e-06L50.6424 6.49748L42.2678 8.85486L48.1613 29.7912C48.7303 31.8126 48.5134 33.7177 47.5105 35.5063C46.5077 37.295 44.9955 38.4738 42.9741 39.0428Z" fill="currentColor"/>
</svg>